/* XPM */
static char * cbpurus[] = {
"48 48 216 2",
"  	c None",
". 	c #020202",
"+ 	c #000000",
"@ 	c #181818",
"# 	c #1B1B1B",
"$ 	c #040404",
"% 	c #0F0F0F",
"& 	c #0C0C0C",
"* 	c #0A0A0A",
"= 	c #161616",
"- 	c #222222",
"; 	c #0D0D0D",
"> 	c #171717",
", 	c #050505",
"' 	c #070707",
") 	c #191919",
"! 	c #151515",
"~ 	c #010101",
"{ 	c #031D32",
"] 	c #1E2D39",
"^ 	c #020000",
"/ 	c #087ED0",
"( 	c #0C0E11",
"_ 	c #060606",
": 	c #1C1C1C",
"< 	c #202020",
"[ 	c #04518A",
"} 	c #0E5584",
"| 	c #212121",
"1 	c #080808",
"2 	c #2D2D2D",
"3 	c #02101B",
"4 	c #048CE6",
"5 	c #131313",
"6 	c #020F1A",
"7 	c #1C4D6D",
"8 	c #292929",
"9 	c #0A1015",
"0 	c #0E0E0E",
"a 	c #030303",
"b 	c #141414",
"c 	c #1A1A1A",
"d 	c #1F1F1F",
"e 	c #01070D",
"f 	c #020D16",
"g 	c #010204",
"h 	c #010306",
"i 	c #020D17",
"j 	c #02060C",
"k 	c #090909",
"l 	c #101010",
"m 	c #04060F",
"n 	c #066ABA",
"o 	c #0A8CEC",
"p 	c #0B3B6D",
"q 	c #010102",
"r 	c #010205",
"s 	c #09477E",
"t 	c #098DEE",
"u 	c #086AB6",
"v 	c #040811",
"w 	c #1E1E1E",
"x 	c #010000",
"y 	c #084378",
"z 	c #019AFF",
"A 	c #009CFF",
"B 	c #0A64AF",
"C 	c #030308",
"D 	c #02070C",
"E 	c #0972C2",
"F 	c #094478",
"G 	c #111111",
"H 	c #030D19",
"I 	c #0685E5",
"J 	c #009BFF",
"K 	c #0197FB",
"L 	c #09335E",
"M 	c #074073",
"N 	c #0199FE",
"O 	c #0685E3",
"P 	c #121212",
"Q 	c #0A5499",
"R 	c #00A1FF",
"S 	c #0871C7",
"T 	c #040002",
"U 	c #06040A",
"V 	c #067FD9",
"W 	c #0C559A",
"X 	c #0C2147",
"Y 	c #009DFF",
"Z 	c #039DFF",
"` 	c #0C0A19",
" .	c #101733",
"..	c #00A4FF",
"+.	c #009AFF",
"@.	c #0D2349",
"#.	c #050004",
"$.	c #0581DB",
"%.	c #009FFF",
"&.	c #0F4C8D",
"*.	c #0F549B",
"=.	c #0583DF",
"-.	c #060004",
";.	c #2B2B2B",
">.	c #093A6B",
",.	c #0198FD",
"'.	c #0689E8",
").	c #060D18",
"!.	c #060C18",
"~.	c #0689E9",
"{.	c #093D6E",
"].	c #030910",
"^.	c #0786E6",
"/.	c #0A4073",
"(.	c #0A4173",
"_.	c #0788E8",
":.	c #050912",
"<.	c #0F498A",
"[.	c #0383DD",
"}.	c #070007",
"|.	c #0483DD",
"1.	c #0E4E92",
"2.	c #242424",
"3.	c #0B1326",
"4.	c #029EFF",
"5.	c #01A0FF",
"6.	c #0D2144",
"7.	c #0F2346",
"8.	c #039AFF",
"9.	c #0B0615",
"0.	c #12407A",
"a.	c #0C59A0",
"b.	c #0E59A1",
"c.	c #0E386B",
"d.	c #113F74",
"e.	c #0B5DA7",
"f.	c #0E5FAB",
"g.	c #009EFF",
"h.	c #0E3666",
"i.	c #0A1224",
"j.	c #0E254B",
"k.	c #0F264D",
"l.	c #0599FF",
"m.	c #0A0513",
"n.	c #0E4681",
"o.	c #00A2FF",
"p.	c #0384DE",
"q.	c #07020B",
"r.	c #07030B",
"s.	c #0485DF",
"t.	c #0D4A8B",
"u.	c #02080F",
"v.	c #0681DF",
"w.	c #0A447A",
"x.	c #0A467D",
"y.	c #0784E2",
"z.	c #040810",
"A.	c #093664",
"B.	c #0198FC",
"C.	c #058AEB",
"D.	c #070D1A",
"E.	c #058BEC",
"F.	c #093968",
"G.	c #030000",
"H.	c #057ED9",
"I.	c #0F5093",
"J.	c #0F59A3",
"K.	c #0681DC",
"L.	c #050002",
"M.	c #0B1A3B",
"N.	c #039EFF",
"O.	c #0E0D21",
"P.	c #0F1B3C",
"Q.	c #0C1E41",
"R.	c #0B4A89",
"S.	c #0777CF",
"T.	c #0C000C",
"U.	c #0B0006",
"V.	c #0B0007",
"W.	c #0C0516",
"X.	c #0682DF",
"Y.	c #0C4F8F",
"Z.	c #030B16",
"`.	c #0780DC",
" +	c #0099FE",
".+	c #038AE8",
"++	c #0388E5",
"@+	c #0389E6",
"#+	c #028CEB",
"$+	c #0783E1",
"%+	c #030C17",
"&+	c #073D6E",
"*+	c #0298FD",
"=+	c #084070",
"-+	c #040106",
";+	c #074378",
">+	c #097AD1",
",+	c #088EED",
"'+	c #098EEC",
")+	c #088CEB",
"!+	c #0974C8",
"~+	c #073D6D",
"{+	c #040004",
"]+	c #303030",
"^+	c #010001",
"/+	c #020910",
"(+	c #020E16",
"_+	c #02070E",
":+	c #0B0B0B",
"<+	c #272727",
"[+	c #282828",
"}+	c #383838",
"|+	c #2E2E2E",
"1+	c #252525",
"2+	c #2A2A2A",
"3+	c #1D1D1D",
"          . + + + @ + + + + # + + + + + + + + + + + + + + + + + + + + + + + $                   ",
"        % + + + $ & + + + * = + + + + + + + + + + + + + + + + + + + + + + + + -                 ",
"        + + + + ; $ + + + > , + + + + + + + + + + + + + + + + + + + + + + + + '                 ",
"      ' + + + + ) + + + ' ! + + + + + + + + + + + + + + + + + + + + + + + + + ~ @               ",
"      . + + { ] + + + + > ' + + + + + + + + + + + + + + + + + + + + + + + + + + ;               ",
"    ; + + ^ / ( + + + _ : + + + + + + + + + + + + + + + + + + + + + + + + + + + + <             ",
"    + + + [ } $ + + + | + + + + + + + + + + + + + + + + + + + + + + + + + + + + + 1 2           ",
"  _ + + 3 4 @ + + + * 5 + + + + + + + + + + + + + + + + + + + + + + + + + + + + + + #           ",
"  _ + + 6 7 + + + + = , + + + + + + + + + + + + + + + + + + + + + + + + + + + + + + _ 8         ",
"    + + $ 9 + + + , = + + + + + + + + + + + + + + + + + + + + + + + + + + + + + + + ~ )         ",
"    0 + 0 a + + + > 1 + + + + + + + + + + + + + + + + + + + + + + + + + + + + + + + + 1 ) ' 1 1 ",
"      , b + + + , c + + + + + + + + + + + + + + + + + + + + + + + + + + + + + + + + + + . + + + ",
"      : + + + + d + + + + + + + + + + + e f g + + + + + + + + h i j + + + + + + + + + + + + + + ",
"      k + + + & l + + + + + + + + + + m n o p q + + + + + + r s t u v + + + + + + + + + + + + + ",
"    w a + + + ! $ + + + + + + + + + x y z A B C + + + + + + D E A z F x + + + + + + + + + + + + ",
"    G + + + ' b + + + + + + + + + + H I J K L + + + + + + + x M N J O H + + + + + + + + + + + + ",
"    P + + + @ _ + + + + + + + + + ^ Q R A S T + + + + + + + + U V J R W x + + + + + + + + + + + ",
"      a + k ! + + + + + + + + + + X Y J Z ` + + + + + + + + + +  ...+.Y @.+ + + + + + + + + + + ",
"      * + w + + + + + + + + + + #.$.J %.&.+ + + + + + + + + + + + *.%.+.=.-.+ + + + + + + + + + ",
"      ;.; & + + + + + + + + + x >.,.J '.).+ + + + + + + + + + + + !.~.J ,.{.x + + + + + + + + + ",
"        # a + + + + + + + + + ].^.J ,./.x + + + + + + + + + + + + x (.,.J _.:.+ + + + + + + + + ",
"        P + + + + + + + + + + <.R +.[.}.+ + + + + + + + + + + + + + }.|.+.R 1.+ + + + + + + + + ",
"      2.a + + + + + + + + + 3.4.+.5.6.+ + + + + + + + + + + + + + + + 7.5.J 8.9.+ + + + + + + + ",
"      5 + + + + + + + + + + 0.%.%.a.x + + + + + + + + + + + + + + + + x b.%.%.c.+ + + + + + + + ",
"      b + + + + + + + + + + d.%.%.e.x + + + + + + + + + + + + + + + + x f.g.%.h.+ + + + + + + + ",
"      | $ + + + + + + + + + i.8.+.5.j.+ + + + + + + + + + + + + + + + k.5.J l.m.+ + + + + + + + ",
"        G + + + + + + + + + + n.o.+.p.q.+ + + + + + + + + + + + + + r.s.+.R t.+ + + + + + + + + ",
"        < a + + + + + + + + + u.v.J N w.x + + + + + + + + + + + + x x.N J y.z.+ + + + + + + + + ",
"          l + + + + + + + + + x A.B.J C.D.+ + + + + + + + + + + + D.E.J B.F.x + + + + + + + + + ",
"          2 + + + + + + + + + + G.H.J %.I.+ + + + + + + + + + + + J.%.J K.L.+ + + + + + + + + + ",
"            c + + + + + + + + + + M.A J N.O.+ + + + + + + + + + P...+.Y Q.+ + + + + + + + + + + ",
"            | _ + + + + + + + + + + R.R A S.T.U.V.V.V.V.V.V.U.W.X.J R Y.x + + + + + + + + + + + ",
"              ! + + + + + + + + + + Z.`.J  +.+++@+@+@+@+@+@+++#+ +J $+%++ + + + + + + + + + + + ",
"              - $ + + + + + + + + + x &+,.J +.+.+.+.+.+.+.+.+.+.J *+=+x + + + + + + + + + + + + ",
"                > + + + + + + + + + + -+;+>+,+'+'+'+'+'+'+'+'+)+!+~+{++ + + + + + + + + + + + + ",
"                ]+~ + + + + + + + + + + ^+/+i (+(+(+(+(+(+(+(+f _+x + + + + + + + + + + + + + + ",
"                  < + + + + + + + + + + + + + + + + + + + + + + + + + + + + + + + + + + . + + + ",
"                  8 k + + + + + + + + + + + + + + + + + + + + + + + + + + + + + + + + :+# * :+:+",
"                    > ~ + + + + + + + + + + + + + + + + + + + + + + + + + + + + + + ~ @         ",
"                    <+, + + + + + + + + + + + + + + + + + + + + + + + + + + + + + + , [+        ",
"                      ! + + + + + + + + + + + + + + + + + + + + + + + + + + + + + + #           ",
"                      }+a + + + + + + + + + + + + + + + + + + + + + + + + + + + + ; |+          ",
"                        < + + + + + + + + + + + + + + + + + + + + + + + + + + + + 1+            ",
"                        2+* + + + + + + + + + + + + + + + + + + + + + + + + + + 0               ",
"                          @ ~ + + + + + + + + + + + + + + + + + + + + + + + + . 3+              ",
"                          [+, + + + + + + + + + + + + + + + + + + + + + + + + '                 ",
"                            > + + + + + + + + + + + + + + + + + + + + + + + + |                 ",
"                            [++ + + + + + + + + + + + + + + + + + + + + + + '                   "};
