/* XPM */
static const char * wxled16[] = {
"16 16 17 1",
" 	c None",
".	c #FEFEFE",
"+	c #FFFFFF",
"@	c #FAFAFA",
"#	c #C0C0C0",
"$	c #EFEFEF",
"%	c #000000",
"&	c #E9E9E9",
"*	c #FDFDFD",
"=	c #F8F8F8",
"-	c #00007F",
";	c #D9D9D9",
">	c #EBEBEB",
",	c #F0F0F0",
"'	c #F4F4F4",
")	c #E6E6E6",
"!	c #FCFCFC",
".++.@#######$+++",
"%%##########&*++",
"+=###------##;.+",
".>#----------,*+",
"'##----------==+",
")#------------=!",
"##------------==",
"##------------==",
"##------------==",
"##------------==",
"##------------=!",
"@##----------==.",
".,>----------=**",
"+.===------===.+",
"++============%%",
"++%==========+++"};
