/* XPM */
static const char * wxled32[] = {
"32 32 71 1",
" 	c None",
".	c #FEFEFE",
"+	c #FFFFFF",
"@	c #FBFBFB",
"#	c #DCDCDC",
"$	c #C8C8C8",
"%	c #C3C3C3",
"&	c #C1C1C1",
"*	c #C0C0C0",
"=	c #C4C4C4",
"-	c #E6E6E6",
";	c #FDFDFD",
">	c #E9E9E9",
",	c #C2C2C2",
"'	c #E0E0E0",
")	c #000000",
"!	c #F7F7F7",
"~	c #D6D6D6",
"{	c #C6C6C6",
"]	c #1B1B88",
"^	c #040480",
"/	c #01017F",
"(	c #00007F",
"_	c #02027F",
":	c #131385",
"<	c #CCCCCC",
"[	c #E5E5E5",
"}	c #FCFCFC",
"|	c #CACACA",
"1	c #080881",
"2	c #0C0C83",
"3	c #C5C5C5",
"4	c #D2D2D2",
"5	c #F4F4F4",
"6	c #202089",
"7	c #404094",
"8	c #C9C9C9",
"9	c #DBDBDB",
"0	c #F3F3F3",
"a	c #D3D3D3",
"b	c #060681",
"c	c #181887",
"d	c #D4D4D4",
"e	c #F6F6F6",
"f	c #F9F9F9",
"g	c #EFEFEF",
"h	c #CBCBCB",
"i	c #26268F",
"j	c #F0F0F0",
"k	c #F8F8F8",
"l	c #FAFAFA",
"m	c #D9D9D9",
"n	c #111184",
"o	c #6C6CB3",
"p	c #040481",
"q	c #C7C7C7",
"r	c #232390",
"s	c #020280",
"t	c #4C4CA4",
"u	c #111187",
"v	c #060682",
"w	c #D1D1D1",
"x	c #5151A0",
"y	c #6E6EB4",
"z	c #CFCFCF",
"A	c #ECECEC",
"B	c #23238F",
"C	c #2A2A93",
"D	c #E7E7E7",
"E	c #DFDFDF",
"F	c #F5F5F5",
".++++@#$%&***************=-+++++",
".+++;>$,&****************%'@++++",
")++!~{&****]^/((((/_:****,<[}+++",
")))|&****1/(((((((((((2**&345+++",
"+@~=&**6/((((((((((((((_7,890@++",
"}0a=&*b((((((((((((((((((cd>ef@.",
"g9h%&b((((((((((((((((((((ij!kl;",
"m8=&n((((((((((((((((((((((okkl}",
"8%&*(((((((((((((((((((((((pkkl}",
"q,*1((((((((((((((((((((((((rkf}",
"=,*/((((((((((((((((((((((((skfl",
"&&:((((((((((((((((((((((((((tkk",
"**_((((((((((((((((((((((((((ukk",
"**/((((((((((((((((((((((((((vkk",
"**(((((((((((((((((((((((((((skk",
"**((((((((((((((((((((((((((((kk",
"**((((((((((((((((((((((((((((kk",
"**(((((((((((((((((((((((((((skk",
"**/((((((((((((((((((((((((((vkk",
"**_((((((((((((((((((((((((((ukk",
"**:((((((((((((((((((((((((((tkk",
"***(((((((((((((((((((((((((skkk",
",&*^((((((((((((((((((((((((rkkf",
"3&,=_((((((((((((((((((((((pkkkk",
"$%qwx((((((((((((((((((((((ykkkk",
"z$~[AB((((((((((((((((((((Ckkkkk",
"DEgFe!C((((((((((((((((((Ckkkkf)",
"))fkkkkyp((((((((((((((pykkkkk))",
"));fkkkkkrs((((((((((srkkkkk@.++",
")));kkkkkkktuvs((svutkkkkkk@++++",
")))))kkkkkkkkkkkkkkkkkkkkk@+++++",
"))))))kkkkkkkkkkkkkkkkkkkf.+++++"};
